<svg width="66" height="61" viewBox="0 0 66 61" fill="none" xmlns="http://www.w3.org/2000/svg">
<path opacity="0.5" d="M65.0578 0.410504L49.3788 55.9541C49.2991 56.2062 48.9802 56.2819 48.7942 56.1054L38.2972 46.1464L46.1633 18.3115C46.243 18.0594 46.0038 17.8325 45.7381 17.9081L16.3997 25.3711L5.95591 15.4625C5.76988 15.286 5.84961 14.9834 6.11535 14.9078L64.6326 0.00710022C64.8984 -0.0433252 65.1375 0.183589 65.0578 0.410504Z" fill="#00B37E"/>
<path opacity="0.5" d="M38.2967 46.1459L34.2573 60.5171C34.1776 60.7693 33.8587 60.8449 33.6727 60.6684L1.09221 29.7828C0.906189 29.6063 0.985912 29.3038 1.25166 29.2282L16.3992 25.3706L38.2967 46.1459Z" fill="#00B37E"/>
<path d="M46.1619 18.311L38.2959 46.1459L16.3984 25.3706L45.7368 17.9076C46.0025 17.832 46.2417 18.0589 46.1619 18.311Z" fill="#00B37E"/>
</svg>
